<?xml version="1.0" standalone="no"?>
<!DOCTYPE svg PUBLIC "-//W3C//DTD SVG 20010904//EN"
 "http://www.w3.org/TR/2001/REC-SVG-20010904/DTD/svg10.dtd">
<svg version="1.0" xmlns="http://www.w3.org/2000/svg"
 width="500.000000pt" height="500.000000pt" viewBox="0 0 500.000000 500.000000"
 preserveAspectRatio="xMidYMid meet">
<metadata>
Created by potrace 1.11, written by Peter Selinger 2001-2013
</metadata>
<g transform="translate(0.000000,500.000000) scale(0.100000,-0.100000)"
fill="#000000" stroke="none">
<path d="M2246 3793 c1 -32 5 -125 8 -208 4 -82 8 -199 11 -260 3 -60 7 -164
10 -230 2 -66 7 -184 11 -263 l6 -143 -39 16 c-21 9 -216 88 -433 175 -217 87
-433 174 -480 194 -62 25 -87 31 -93 23 -4 -7 -45 -124 -91 -262 l-84 -250 82
-21 c333 -87 483 -126 496 -129 8 -2 60 -15 115 -30 55 -15 107 -29 115 -31 8
-2 69 -18 135 -35 66 -17 126 -32 133 -32 6 0 12 -4 12 -9 0 -4 -53 -76 -117
-160 -65 -84 -138 -180 -163 -213 -25 -33 -47 -62 -50 -65 -3 -3 -31 -39 -62
-80 -61 -82 -191 -252 -281 -370 -66 -85 -68 -75 31 -133 61 -36 58 -35 241
-146 l133 -81 282 463 c155 254 291 477 301 495 11 17 22 32 26 32 5 0 124
-197 199 -332 116 -206 385 -658 392 -658 4 0 72 39 151 87 78 47 179 108 225
135 45 27 82 51 82 54 0 3 -13 22 -29 42 -25 32 -181 243 -416 562 -39 52
-116 155 -171 230 -56 74 -100 137 -98 138 2 4 359 98 439 117 11 3 65 16 119
31 55 14 107 27 115 29 9 2 70 18 136 35 66 18 156 41 200 52 44 11 81 21 83
23 2 2 -167 508 -172 512 -1 2 -58 -19 -127 -46 -68 -27 -214 -83 -324 -126
-168 -65 -532 -206 -571 -222 -7 -3 -10 6 -9 24 2 15 6 100 10 188 6 160 9
220 19 455 3 69 9 186 12 260 3 74 7 154 8 178 l2 42 -266 0 -266 0 2 -57z"/>
</g>
</svg>
